<svg width="80" height="80" viewBox="0 0 80 80" fill="none" xmlns="http://www.w3.org/2000/svg">
<circle cx="40" cy="40" r="39.25" stroke="white" stroke-width="1.5" stroke-dasharray="4 4"/>
<path d="M36 31C36 31.3425 35.9656 31.6769 35.9 32H42C43.1046 32 44 32.8954 44 34V38H42C39.7909 38 38 39.7909 38 42V44H34C32.8954 44 32 43.1046 32 42V35.9C31.6769 35.9656 31.3425 36 31 36C30.6575 36 30.3231 35.9656 30 35.9V42C30 44.2092 31.7909 46 34 46H38V50C38 52.2092 39.7909 54 42 54H48.1C48.0344 53.6768 48 53.3424 48 53C48 52.6576 48.0344 52.3232 48.1 52H42C40.8954 52 40 51.1046 40 50V46H42C44.2092 46 46 44.2092 46 42V40H50C51.1046 40 52 40.8954 52 42V48.1C52.3232 48.0344 52.6576 48 53 48C53.3424 48 53.6768 48.0344 54 48.1V42C54 39.7909 52.2092 38 50 38H46V34C46 31.7909 44.2092 30 42 30H35.9C35.9656 30.3231 36 30.6575 36 31ZM44 40V42C44 43.1046 43.1046 44 42 44H40V42C40 40.8954 40.8954 40 42 40H44Z" fill="white"/>
<path d="M34 31C34 32.6569 32.6569 34 31 34C29.3431 34 28 32.6569 28 31C28 29.3431 29.3431 28 31 28C32.6569 28 34 29.3431 34 31Z" fill="white"/>
<path d="M56 53C56 54.6568 54.6568 56 53 56C51.3432 56 50 54.6568 50 53C50 51.3432 51.3432 50 53 50C54.6568 50 56 51.3432 56 53Z" fill="white"/>
<path d="M56 31C56 32.6569 54.6568 34 53 34C51.3432 34 50 32.6569 50 31C50 29.3431 51.3432 28 53 28C54.6568 28 56 29.3431 56 31Z" fill="white"/>
<path d="M34 53C34 54.6568 32.6569 56 31 56C29.3431 56 28 54.6568 28 53C28 51.3432 29.3431 50 31 50C32.6569 50 34 51.3432 34 53Z" fill="white"/>
</svg>
