<svg width="80" height="80" viewBox="0 0 80 80" fill="none" xmlns="http://www.w3.org/2000/svg">
<circle cx="40" cy="40" r="39.25" stroke="white" stroke-width="1.5" stroke-dasharray="4 4"/>
<g clip-path="url(#clip0_665_4268)">
<path d="M23.8138 32.3937H30.9179C31.3092 32.3937 31.6845 32.2382 31.9612 31.9615C32.2378 31.6848 32.3933 31.3096 32.3933 30.9183C32.3933 30.527 32.2378 30.1517 31.9612 29.875C31.6845 29.5983 31.3092 29.4428 30.9179 29.4428H26.3352C27.8159 27.3808 29.7777 25.7115 32.0501 24.5802C34.3226 23.4488 36.837 22.8896 39.3748 22.951C42.3036 22.9512 45.1688 23.8055 47.6194 25.4094C50.0701 27.0132 51.9997 29.297 53.172 31.981C53.33 32.3379 53.6228 32.6177 53.9866 32.7592C54.3503 32.9007 54.7553 32.8924 55.1129 32.736C55.4704 32.5796 55.7515 32.2879 55.8946 31.9248C56.0376 31.5616 56.031 31.1566 55.8761 30.7984C54.4738 27.5887 52.1659 24.8576 49.235 22.9397C46.3041 21.0218 42.8775 20.0002 39.3748 20.0002C36.0432 19.9142 32.7515 20.7416 29.8564 22.3926C26.9613 24.0437 24.5732 26.4555 22.9508 29.3668V21.4756C22.9508 21.0843 22.7953 20.7091 22.5186 20.4324C22.242 20.1557 21.8667 20.0002 21.4754 20.0002C21.0841 20.0002 20.7088 20.1557 20.4321 20.4324C20.1554 20.7091 20 21.0843 20 21.4756V30.9183C20.0003 31.3095 20.1558 31.6846 20.4324 31.9612C20.7091 32.2379 21.0842 32.3934 21.4754 32.3937H23.8138Z" fill="white"/>
<path d="M54.5242 43.6063H45.0816C44.6904 43.6063 44.3151 43.7618 44.0384 44.0385C43.7617 44.3152 43.6063 44.6904 43.6063 45.0817C43.6063 45.473 43.7617 45.8483 44.0384 46.125C44.3151 46.4017 44.6904 46.5572 45.0816 46.5572H49.7435C48.5619 48.6053 46.8438 50.2923 44.7744 51.4362C42.705 52.5802 40.3627 53.1378 37.9998 53.049C35.071 53.0488 32.2058 52.1945 29.7552 50.5906C27.3046 48.9868 25.3749 46.703 24.2026 44.019C24.0453 43.661 23.7525 43.3801 23.3883 43.2378C23.0241 43.0956 22.6183 43.1037 22.2601 43.2604C21.9019 43.4171 21.6205 43.7095 21.4777 44.0735C21.3349 44.4374 21.3424 44.8432 21.4985 45.2017C22.9008 48.4114 25.2087 51.1424 28.1396 53.0603C31.0705 54.9783 34.4971 55.9998 37.9998 55.9998C41.1474 56.0868 44.2514 55.2478 46.9266 53.5869C49.6018 51.926 51.7305 49.5162 53.0488 46.6566V54.5244C53.0488 54.9157 53.2042 55.2909 53.4809 55.5676C53.7576 55.8443 54.1329 55.9998 54.5242 55.9998C54.9154 55.9998 55.2907 55.8443 55.5674 55.5676C55.8441 55.2909 55.9995 54.9157 55.9995 54.5244V45.0817C55.9995 44.6905 55.844 44.3152 55.5673 44.0385C55.2907 43.7619 54.9154 43.6064 54.5242 43.6063Z" fill="white"/>
</g>
<defs>
<clipPath id="clip0_665_4268">
<rect width="36" height="36" fill="white" transform="translate(20 20)"/>
</clipPath>
</defs>
</svg>
