<svg width="80" height="80" viewBox="0 0 80 80" fill="none" xmlns="http://www.w3.org/2000/svg">
<circle cx="40" cy="40" r="39.25" stroke="white" stroke-width="1.5" stroke-dasharray="4 4"/>
<g clip-path="url(#clip0_665_4267)">
<path d="M47.5 37.0585C41.7115 37.0585 37 41.7685 37 47.5585C37 53.3155 41.7115 58 47.5 58C53.2885 58 58 53.29 58 47.5C58 41.743 53.2885 37.0585 47.5 37.0585ZM47.5 55C43.3645 55 40 51.661 40 47.5585C40 43.423 43.3645 40.0585 47.5 40.0585C51.6355 40.0585 55 43.3975 55 47.5C55 51.6355 51.6355 55 47.5 55ZM50.0605 47.9395C50.647 48.526 50.647 49.474 50.0605 50.0605C49.768 50.353 49.384 50.5 49 50.5C48.616 50.5 48.232 50.353 47.9395 50.0605L46.4395 48.5605C46.1575 48.2785 46 47.8975 46 47.5V44.5C46 43.672 46.6705 43 47.5 43C48.3295 43 49 43.672 49 44.5V46.879L50.0605 47.9395ZM58 32.5V35.5C58 36.328 57.3295 37 56.5 37C55.6705 37 55 36.328 55 35.5V32.5C55 30.019 52.981 28 50.5 28H29.5C27.019 28 25 30.019 25 32.5V34H38.5C39.328 34 40 34.672 40 35.5C40 36.328 39.328 37 38.5 37H25V50.5C25 52.981 27.019 55 29.5 55H35.5C36.328 55 37 55.672 37 56.5C37 57.328 36.328 58 35.5 58H29.5C25.3645 58 22 54.6355 22 50.5V32.5C22 28.3645 25.3645 25 29.5 25H31V23.5C31 22.672 31.672 22 32.5 22C33.328 22 34 22.672 34 23.5V25H46V23.5C46 22.672 46.6705 22 47.5 22C48.3295 22 49 22.672 49 23.5V25H50.5C54.6355 25 58 28.3645 58 32.5Z" fill="white"/>
</g>
<defs>
<clipPath id="clip0_665_4267">
<rect width="36" height="36" fill="white" transform="translate(22 22)"/>
</clipPath>
</defs>
</svg>
